<svg width="500" height="194" viewBox="0 0 500 194" fill="none" xmlns="http://www.w3.org/2000/svg">
<path d="M72.1699 60.0525C71.9082 60.1288 71.6523 60.211 71.3905 60.2982C70.5072 60.5927 69.6399 60.9198 68.7951 61.2797C67.661 61.7595 66.5865 62.4959 65.5782 63.4061C61.2867 67.2607 59.635 72.9044 60.5837 78.1766C62.4325 77.6095 64.3895 77.31 66.4237 77.31C77.4762 77.31 86.4452 86.2739 86.4452 97.3316C86.4452 108.389 77.4762 117.353 66.4237 117.353C64.3903 117.353 62.4274 117.048 60.5786 116.481C59.6299 121.759 61.2765 127.402 65.5673 131.263C66.5705 132.168 67.6392 132.899 68.7675 133.383C69.6181 133.743 70.4905 134.076 71.3789 134.37C71.6355 134.457 71.8914 134.539 72.1532 134.616C90.2664 131.862 104.143 116.219 104.143 97.3316C104.143 78.455 90.278 62.8173 72.1699 60.0525Z" fill="#4570EA"/>
<path d="M56.9906 79.6686C57.7867 82.4377 59.317 85.0346 61.5758 87.137C63.0429 88.5024 64.2352 89.8044 64.7375 90.8004C65.7415 92.7967 66.4241 95.0054 66.4241 97.3318C66.4241 99.6618 65.7415 101.874 64.7332 103.875C64.2308 104.867 63.0385 106.17 61.5751 107.526C59.3156 109.625 57.7816 112.222 56.9855 114.991C55.3265 120.75 56.8518 127.246 61.6303 131.545C62.6423 132.455 63.7212 133.192 64.8589 133.683C65.7182 134.048 66.5965 134.381 67.495 134.679C67.8207 134.789 68.1464 134.891 68.4758 134.993C68.4721 134.993 68.4677 134.997 68.4641 134.997C67.6012 135.142 66.7222 135.264 65.828 135.362C64.004 135.566 62.1174 135.668 60.1676 135.668H48.745C40.6011 135.668 34 129.066 34 120.923V73.7414C34 65.6019 40.5982 59 48.7413 59H60.1683C62.1181 59 64.0047 59.1018 65.8287 59.3061C66.7149 59.4042 67.5903 59.5256 68.4452 59.671C68.4488 59.671 68.4488 59.671 68.4532 59.671C68.4648 59.6747 68.4808 59.6747 68.4925 59.679C68.4888 59.679 68.4845 59.6827 68.4808 59.6827C68.1551 59.7808 67.8294 59.8789 67.5081 59.9887C66.6139 60.2832 65.743 60.6125 64.888 60.9774C63.7466 61.4638 62.6641 62.2053 61.6478 63.1192C56.8685 67.4143 55.3352 73.9064 56.9906 79.6686Z" fill="#4570EA"/>
<path d="M137.014 60.7848V133.717H122.386V60.7848H137.014ZM166.408 121.387H199.217V133.717H149.481V122.432L182.081 73.1142H149.481V60.7848H199.217V72.0694L166.408 121.387ZM253.046 96.3103C257.156 97.0765 260.534 99.1314 263.181 102.475C265.828 105.819 267.151 109.65 267.151 113.969C267.151 117.869 266.176 121.317 264.226 124.313C262.345 127.238 259.594 129.537 255.971 131.209C252.349 132.881 248.065 133.717 243.12 133.717H211.669V60.7848H241.761C246.707 60.7848 250.956 61.5859 254.509 63.188C258.131 64.7901 260.847 67.0192 262.659 69.8752C264.539 72.7311 265.48 75.9702 265.48 79.5924C265.48 83.8416 264.33 87.3941 262.032 90.2501C259.803 93.106 256.807 95.1261 253.046 96.3103ZM226.297 90.877H239.671C243.154 90.877 245.836 90.1108 247.717 88.5783C249.598 86.9762 250.538 84.7123 250.538 81.7866C250.538 78.861 249.598 76.5971 247.717 74.995C245.836 73.3929 243.154 72.5918 239.671 72.5918H226.297V90.877ZM241.03 121.805C244.582 121.805 247.334 120.969 249.284 119.297C251.304 117.626 252.314 115.257 252.314 112.192C252.314 109.058 251.269 106.62 249.18 104.878C247.09 103.067 244.269 102.162 240.716 102.162H226.297V121.805H241.03ZM293.229 60.7848V105.923C293.229 110.869 294.518 114.665 297.095 117.312C299.672 119.889 303.295 121.178 307.962 121.178C312.698 121.178 316.355 119.889 318.933 117.312C321.51 114.665 322.799 110.869 322.799 105.923V60.7848H337.531V105.819C337.531 112.018 336.173 117.277 333.456 121.596C330.809 125.845 327.222 129.049 322.694 131.209C318.236 133.368 313.256 134.448 307.753 134.448C302.319 134.448 297.374 133.368 292.916 131.209C288.527 129.049 285.044 125.845 282.467 121.596C279.89 117.277 278.601 112.018 278.601 105.819V60.7848H293.229ZM366.607 121.387H399.415V133.717H349.68V122.432L382.28 73.1142H349.68V60.7848H399.415V72.0694L366.607 121.387ZM426.809 121.387H459.618V133.717H409.882V122.432L442.482 73.1142H409.882V60.7848H459.618V72.0694L426.809 121.387Z" fill="#4570EA"/>
</svg>
