<?xml version="1.0" standalone="no"?>
<!DOCTYPE svg PUBLIC "-//W3C//DTD SVG 20010904//EN"
 "http://www.w3.org/TR/2001/REC-SVG-20010904/DTD/svg10.dtd">
<svg version="1.0" xmlns="http://www.w3.org/2000/svg"
 width="200.000000pt" height="200.000000pt" viewBox="0 0 200.000000 200.000000"
 preserveAspectRatio="xMidYMid meet">

<g transform="translate(0.000000,200.000000) scale(0.100000,-0.100000)"
fill="#000000" stroke="none">
<path d="M0 1000 l0 -1000 1000 0 1000 0 0 1000 0 1000 -1000 0 -1000 0 0
-1000z m1058 637 c52 -50 37 -51 -28 0 -33 25 -60 48 -60 49 0 11 60 -22 88
-49z m254 -89 c16 -11 28 -22 26 -24 -2 -2 -45 2 -96 8 -80 11 -92 14 -92 31
0 18 5 19 67 13 42 -4 77 -14 95 -28z m-478 -44 c9 -3 16 -12 16 -18 0 -18
-21 -35 -36 -29 -15 5 -19 35 -7 46 8 8 8 8 27 1z m90 0 c9 -3 16 -12 16 -18
0 -18 -21 -35 -36 -29 -15 5 -19 35 -7 46 8 8 8 8 27 1z m103 -10 c3 -8 -1
-22 -9 -30 -13 -14 -17 -14 -32 1 -13 13 -14 20 -5 31 15 19 38 18 46 -2z
m258 -5 c65 -10 115 -32 102 -45 -2 -2 -54 2 -115 8 -97 10 -112 14 -112 30 0
22 18 23 125 7z m98 -85 c9 -3 17 -11 17 -19 0 -10 -26 -12 -127 -8 -71 3
-130 7 -132 9 -2 2 -1 11 3 20 6 14 19 16 114 10 59 -4 115 -10 125 -12z m17
-78 c0 -17 -71 -26 -219 -26 -113 0 -114 0 -96 20 17 18 31 20 167 20 118 0
148 -3 148 -14z m-23 -70 c-9 -24 -132 -39 -263 -34 -127 6 -184 18 -148 32
10 4 89 7 174 7 85 0 173 3 195 8 46 8 50 7 42 -13z m-535 -96 c20 0 20 -1 5
-18 -10 -10 -17 -30 -17 -45 0 -24 -2 -26 -24 -16 -17 8 -29 8 -46 -1 -20 -11
-21 -10 -18 13 1 14 -5 34 -15 45 -17 19 -17 20 12 25 19 4 32 14 36 28 l8 23
19 -27 c11 -15 29 -27 40 -27z m246 20 c68 -9 208 0 234 16 6 4 9 1 6 -7 -9
-31 -70 -49 -163 -49 -105 0 -154 12 -181 42 -19 21 -19 21 7 15 14 -4 58 -11
97 -17z m-726 -410 c58 -16 88 -60 88 -127 0 -49 -4 -59 -34 -89 -33 -33 -37
-34 -110 -34 l-76 0 0 123 c0 68 3 127 7 130 10 10 83 8 125 -3z m178 -120 l0
-130 -25 0 -25 0 0 123 c0 68 3 127 7 130 3 4 15 7 25 7 17 0 18 -11 18 -130z
m248 109 c1 -8 -29 -56 -69 -105 l-71 -89 71 -3 c63 -3 71 -5 71 -22 0 -19 -7
-20 -105 -20 -89 0 -105 2 -105 16 0 8 32 54 72 102 l71 87 -66 3 c-64 3 -67
4 -67 28 l0 25 97 -3 c80 -2 98 -6 101 -19z m202 8 c19 -9 26 -22 28 -50 2
-21 -2 -45 -8 -52 -9 -11 -7 -20 9 -41 27 -34 26 -49 -4 -79 -22 -22 -32 -25
-105 -25 l-80 0 0 130 0 130 68 0 c37 0 78 -6 92 -13z m130 -67 c0 -89 13
-128 46 -136 61 -15 84 22 84 137 0 78 1 80 23 77 21 -3 22 -7 22 -100 0 -93
-1 -98 -29 -127 -26 -27 -37 -31 -81 -31 -83 0 -115 48 -115 174 0 78 3 86 32
86 16 0 18 -9 18 -80z m418 58 c2 -10 -27 -55 -67 -105 l-71 -88 70 -3 c62 -3
70 -5 70 -22 0 -19 -7 -20 -105 -20 -88 0 -105 2 -105 16 0 8 32 53 70 99 39
46 70 86 70 89 0 3 -29 6 -65 6 -63 0 -65 1 -65 25 l0 26 97 -3 c83 -3 98 -6
101 -20z m230 1 c1 -8 -29 -56 -69 -105 l-71 -89 71 -3 c63 -3 71 -5 71 -22 0
-19 -7 -20 -105 -20 -90 0 -105 2 -105 16 0 9 32 54 70 100 39 45 70 85 70 88
0 3 -29 6 -65 6 -63 0 -65 1 -65 25 l0 26 97 -3 c80 -2 98 -6 101 -19z m-1658
-434 c-8 -40 -8 -40 -9 15 0 35 3 50 8 40 5 -8 5 -33 1 -55z m59 18 l-1 -48
-8 40 c-7 37 -5 55 6 55 2 0 3 -21 3 -47z m487 35 c4 -7 3 -8 -5 -4 -6 4 -20
2 -29 -6 -15 -12 -16 -11 -3 5 16 20 27 22 37 5z m414 3 c0 -5 -9 -7 -20 -4
-11 3 -20 7 -20 9 0 2 9 4 20 4 11 0 20 -4 20 -9z m544 0 c4 -5 -3 -7 -14 -4
-23 6 -26 13 -6 13 8 0 17 -4 20 -9z m278 -53 c2 -21 0 -38 -4 -38 -4 0 -7 24
-7 53 1 54 5 49 11 -15z m-1505 30 c-3 -8 -6 -5 -6 6 -1 11 2 17 5 13 3 -3 4
-12 1 -19z m280 -30 c-3 -7 -5 -2 -5 12 0 14 2 19 5 13 2 -7 2 -19 0 -25z m71
-9 c-3 -20 -5 -19 -9 9 -3 20 -2 29 4 23 5 -5 7 -19 5 -32z m390 -14 c13 5 14
3 5 -6 -18 -18 -33 -1 -31 34 l1 32 4 -33 c4 -27 8 -32 21 -27z m154 25 c-2
-16 -6 -30 -8 -30 -2 0 -4 14 -4 30 0 17 4 30 8 30 5 0 7 -13 4 -30z m70 4
c-3 -16 1 -30 9 -36 12 -8 11 -9 -1 -5 -17 4 -25 30 -16 53 9 23 14 16 8 -12z
m388 22 c0 -3 -4 -8 -10 -11 -5 -3 -10 -1 -10 4 0 6 5 11 10 11 6 0 10 -2 10
-4z m-1393 -43 c-3 -10 -5 -4 -5 12 0 17 2 24 5 18 2 -7 2 -21 0 -30z m723 27
c0 -5 -2 -10 -4 -10 -3 0 -8 5 -11 10 -3 6 -1 10 4 10 6 0 11 -4 11 -10z m545
0 c-3 -5 -14 -10 -23 -9 -14 0 -13 2 3 9 27 11 27 11 20 0z m-1477 -25 c-3 -3
-9 2 -12 12 -6 14 -5 15 5 6 7 -7 10 -15 7 -18z m787 16 c3 -5 1 -12 -5 -16
-5 -3 -10 1 -10 9 0 18 6 21 15 7z m281 -30 c-4 -6 -13 -11 -19 -11 -8 0 -7 3
2 9 8 5 10 14 6 22 -6 11 -5 11 5 2 7 -6 9 -16 6 -22z m240 0 c-4 -6 -13 -11
-19 -11 -8 0 -7 3 2 9 8 5 10 14 6 22 -6 11 -5 11 5 2 7 -6 9 -16 6 -22z m60
0 c-4 -6 -13 -11 -19 -11 -8 0 -7 3 2 9 8 5 10 14 6 22 -6 11 -5 11 5 2 7 -6
9 -16 6 -22z m-854 5 c10 6 11 4 0 -7 -10 -11 -15 -10 -30 6 -15 17 -15 18 0
6 9 -7 23 -9 30 -5z m1189 -1 c11 6 11 5 2 -5 -12 -14 -33 -6 -33 13 0 8 3 7
9 -2 5 -8 14 -10 22 -6z m-1516 -5 c3 -5 1 -10 -4 -10 -6 0 -11 5 -11 10 0 6
2 10 4 10 3 0 8 -4 11 -10z m70 0 c3 -5 1 -10 -4 -10 -6 0 -11 5 -11 10 0 6 2
10 4 10 3 0 8 -4 11 -10z m675 0 c0 -5 -10 -10 -22 -9 -22 0 -22 1 -3 9 11 5
21 9 23 9 1 1 2 -3 2 -9z m610 -4 c-7 -7 -13 -7 -20 0 -6 6 -3 10 10 10 13 0
16 -4 10 -10z m105 4 c3 -5 1 -10 -4 -10 -6 0 -11 5 -11 10 0 6 2 10 4 10 3 0
8 -4 11 -10z m-838 -6 c-3 -3 -12 -4 -19 -1 -8 3 -5 6 6 6 11 1 17 -2 13 -5z"/>
<path d="M280 645 l0 -85 34 0 c19 0 45 9 60 21 21 17 26 29 26 65 0 58 -25
84 -80 84 l-40 0 0 -85z"/>
<path d="M880 700 c0 -28 2 -30 39 -30 42 0 65 18 55 44 -4 11 -19 16 -50 16
-42 0 -44 -1 -44 -30z"/>
<path d="M880 595 c0 -35 0 -35 45 -35 49 0 71 21 54 52 -7 13 -22 18 -54 18
-45 0 -45 0 -45 -35z"/>
</g>
</svg>
